<mxfile host="65bd71144e">
    <diagram id="d-J2vTroJSH87MWg2zBY" name="Page-1">
        <mxGraphModel dx="888" dy="611" grid="1" gridSize="10" guides="1" tooltips="1" connect="1" arrows="1" fold="1" page="1" pageScale="1" pageWidth="827" pageHeight="1169" math="0" shadow="0">
            <root>
                <mxCell id="0"/>
                <mxCell id="1" parent="0"/>
                <mxCell id="2" value="&lt;font style=&quot;font-size: 20px;&quot;&gt;Code Compilation&lt;/font&gt;" style="text;html=1;strokeColor=none;fillColor=none;align=center;verticalAlign=middle;whiteSpace=wrap;rounded=0;" vertex="1" parent="1">
                    <mxGeometry x="40" y="40" width="210" height="40" as="geometry"/>
                </mxCell>
                <mxCell id="3" value="&lt;font style=&quot;font-size: 14px;&quot;&gt;rustc&lt;/font&gt;" style="rounded=0;whiteSpace=wrap;html=1;fontSize=20;" vertex="1" parent="1">
                    <mxGeometry x="335" y="310" width="70" height="60" as="geometry"/>
                </mxCell>
                <mxCell id="19" style="edgeStyle=none;html=1;entryX=0;entryY=0.25;entryDx=0;entryDy=0;fontSize=15;exitX=1;exitY=0.5;exitDx=0;exitDy=0;" edge="1" parent="1" source="4" target="3">
                    <mxGeometry relative="1" as="geometry"/>
                </mxCell>
                <mxCell id="4" value="&lt;font style=&quot;font-size: 15px;&quot;&gt;with nightly features&lt;br&gt;(pass -Z to rustc)&lt;/font&gt;" style="rounded=0;whiteSpace=wrap;html=1;fontSize=14;" vertex="1" parent="1">
                    <mxGeometry x="40" y="190" width="170" height="50" as="geometry"/>
                </mxCell>
                <mxCell id="5" value="&lt;font style=&quot;font-size: 20px;&quot;&gt;Invocation&lt;/font&gt;" style="text;html=1;strokeColor=none;fillColor=none;align=center;verticalAlign=middle;whiteSpace=wrap;rounded=0;fontSize=14;" vertex="1" parent="1">
                    <mxGeometry x="40" y="110" width="110" height="40" as="geometry"/>
                </mxCell>
                <mxCell id="20" style="edgeStyle=none;html=1;fontSize=15;exitX=1;exitY=0.5;exitDx=0;exitDy=0;entryX=0.017;entryY=0.367;entryDx=0;entryDy=0;entryPerimeter=0;" edge="1" parent="1" source="6" target="3">
                    <mxGeometry relative="1" as="geometry"/>
                </mxCell>
                <mxCell id="6" value="&lt;font style=&quot;font-size: 15px;&quot;&gt;check-only build&lt;/font&gt;" style="whiteSpace=wrap;html=1;fontSize=20;" vertex="1" parent="1">
                    <mxGeometry x="67.5" y="260" width="125" height="50" as="geometry"/>
                </mxCell>
                <mxCell id="21" style="edgeStyle=none;html=1;fontSize=15;exitX=1;exitY=0.5;exitDx=0;exitDy=0;" edge="1" parent="1" source="7" target="3">
                    <mxGeometry relative="1" as="geometry"/>
                </mxCell>
                <mxCell id="7" value="emit LLVM-IR rather than machine code" style="whiteSpace=wrap;html=1;fontSize=15;" vertex="1" parent="1">
                    <mxGeometry x="50" y="330" width="160" height="60" as="geometry"/>
                </mxCell>
                <mxCell id="22" style="edgeStyle=none;html=1;fontSize=15;exitX=1;exitY=0.5;exitDx=0;exitDy=0;" edge="1" parent="1" source="8" target="3">
                    <mxGeometry relative="1" as="geometry"/>
                </mxCell>
                <mxCell id="8" value="call by cargo" style="whiteSpace=wrap;html=1;fontSize=15;" vertex="1" parent="1">
                    <mxGeometry x="65" y="410" width="120" height="40" as="geometry"/>
                </mxCell>
                <mxCell id="18" value="" style="edgeStyle=none;html=1;fontSize=15;" edge="1" parent="1" source="16" target="17">
                    <mxGeometry relative="1" as="geometry"/>
                </mxCell>
                <mxCell id="16" value="command line parsing" style="whiteSpace=wrap;html=1;fontSize=15;" vertex="1" parent="1">
                    <mxGeometry x="280" y="190" width="160" height="40" as="geometry"/>
                </mxCell>
                <mxCell id="24" value="" style="edgeStyle=none;html=1;fontSize=15;" edge="1" parent="1" source="17" target="23">
                    <mxGeometry relative="1" as="geometry"/>
                </mxCell>
                <mxCell id="17" value="rustc_driver(crate)" style="whiteSpace=wrap;html=1;fontSize=15;" vertex="1" parent="1">
                    <mxGeometry x="510" y="185" width="160" height="50" as="geometry"/>
                </mxCell>
                <mxCell id="23" value="defines the compile configuration that user requested&lt;br&gt;=&amp;gt;&amp;nbsp;&lt;a href=&quot;https://doc.rust-lang.org/nightly/nightly-rustc/rustc_interface/interface/struct.Config.html&quot;&gt;&lt;code class=&quot;hljs&quot;&gt;rustc_interface::Config&lt;/code&gt;&lt;/a&gt;" style="whiteSpace=wrap;html=1;fontSize=15;" vertex="1" parent="1">
                    <mxGeometry x="510" y="25" width="250" height="120" as="geometry"/>
                </mxCell>
                <mxCell id="25" value="&lt;font size=&quot;1&quot; style=&quot;&quot;&gt;&lt;span style=&quot;font-size: 20px;&quot;&gt;Lexing and parsing&lt;/span&gt;&lt;/font&gt;" style="text;html=1;strokeColor=none;fillColor=none;align=center;verticalAlign=middle;whiteSpace=wrap;rounded=0;fontSize=14;" vertex="1" parent="1">
                    <mxGeometry x="140" y="530" width="175" height="40" as="geometry"/>
                </mxCell>
                <mxCell id="28" value="analyzed by" style="edgeStyle=none;html=1;entryX=0;entryY=0.5;entryDx=0;entryDy=0;fontSize=15;exitX=1;exitY=0.5;exitDx=0;exitDy=0;" edge="1" parent="1" source="26" target="27">
                    <mxGeometry relative="1" as="geometry"/>
                </mxCell>
                <mxCell id="26" value="&lt;font style=&quot;font-size: 15px;&quot;&gt;the source code *.rs&lt;/font&gt;" style="whiteSpace=wrap;html=1;fontSize=20;" vertex="1" parent="1">
                    <mxGeometry x="25" y="700" width="160" height="50" as="geometry"/>
                </mxCell>
                <mxCell id="32" value="" style="edgeStyle=none;html=1;fontSize=15;" edge="1" parent="1" source="27" target="31">
                    <mxGeometry relative="1" as="geometry"/>
                </mxCell>
                <mxCell id="27" value="rustc_lexer(crate)&lt;br&gt;&amp;nbsp;a low-level lexer&lt;br&gt;&lt;i&gt;&amp;nbsp;No stability guarantees are provided&lt;br&gt;Support Unicode encoding&lt;br&gt;&lt;/i&gt;" style="whiteSpace=wrap;html=1;fontSize=15;" vertex="1" parent="1">
                    <mxGeometry x="300" y="585" width="240" height="95" as="geometry"/>
                </mxCell>
                <mxCell id="34" value="" style="edgeStyle=none;html=1;fontSize=15;" edge="1" parent="1" source="31" target="33">
                    <mxGeometry relative="1" as="geometry"/>
                </mxCell>
                <mxCell id="31" value="tokens" style="whiteSpace=wrap;html=1;fontSize=15;" vertex="1" parent="1">
                    <mxGeometry x="570" y="720" width="110" height="37.5" as="geometry"/>
                </mxCell>
                <mxCell id="46" style="edgeStyle=none;html=1;entryX=0.199;entryY=0.038;entryDx=0;entryDy=0;fontSize=15;entryPerimeter=0;" edge="1" parent="1" source="33" target="41">
                    <mxGeometry relative="1" as="geometry"/>
                </mxCell>
                <mxCell id="33" value="rustc_parse(crate)&lt;br&gt;a higher-level lexer" style="whiteSpace=wrap;html=1;fontSize=15;" vertex="1" parent="1">
                    <mxGeometry x="542.5" y="830" width="165" height="53.75" as="geometry"/>
                </mxCell>
                <mxCell id="36" style="edgeStyle=none;html=1;entryX=0;entryY=0.25;entryDx=0;entryDy=0;fontSize=15;" edge="1" parent="1" source="35" target="33">
                    <mxGeometry relative="1" as="geometry"/>
                </mxCell>
                <mxCell id="40" style="edgeStyle=none;html=1;entryX=0.5;entryY=0;entryDx=0;entryDy=0;fontSize=29;" edge="1" parent="1" source="35" target="39">
                    <mxGeometry relative="1" as="geometry"/>
                </mxCell>
                <mxCell id="35" value="&lt;a href=&quot;https://doc.rust-lang.org/nightly/nightly-rustc/rustc_parse/lexer/struct.StringReader.html&quot;&gt;&lt;code class=&quot;hljs&quot;&gt;StringReader&lt;/code&gt;&lt;/a&gt;&lt;br&gt;perform a set of validations&lt;br&gt;and turn strings into &lt;b&gt;&lt;i&gt;interned&lt;/i&gt;&lt;/b&gt; symbols" style="whiteSpace=wrap;html=1;fontSize=15;" vertex="1" parent="1">
                    <mxGeometry x="290" y="730" width="160" height="110" as="geometry"/>
                </mxCell>
                <mxCell id="39" value="&lt;h1&gt;&lt;em style=&quot;font-weight: 400; text-align: center;&quot;&gt;&lt;b style=&quot;&quot;&gt;&lt;font style=&quot;font-size: 29px;&quot;&gt;String Interning&lt;/font&gt;&lt;/b&gt;&lt;/em&gt;&lt;br&gt;&lt;/h1&gt;&lt;p&gt;In computer science, &lt;b&gt;string interning&lt;/b&gt; is a method of storing only one copy of each distinct &lt;a title=&quot;String (computer science)&quot; href=&quot;https://en.wikipedia.org/wiki/String_(computer_science)&quot;&gt;string&lt;/a&gt; value, which must be &lt;a title=&quot;Immutable object&quot; href=&quot;https://en.wikipedia.org/wiki/Immutable_object&quot;&gt;immutable&lt;/a&gt;.&lt;sup class=&quot;reference&quot; id=&quot;cite_ref-1&quot;&gt;&lt;a href=&quot;https://en.wikipedia.org/wiki/String_interning#cite_note-1&quot;&gt;[1]&lt;/a&gt;&lt;/sup&gt;&lt;br&gt; Interning strings makes some string processing tasks more time- or &lt;br&gt;space-efficient at the cost of requiring more time when the string is &lt;br&gt;created or interned. The distinct values are stored in a &lt;b&gt;string intern pool&lt;/b&gt;&lt;br&gt;&lt;/p&gt;" style="text;html=1;strokeColor=none;fillColor=none;spacing=5;spacingTop=-20;whiteSpace=wrap;overflow=hidden;rounded=0;fontSize=15;" vertex="1" parent="1">
                    <mxGeometry x="60" y="890" width="380" height="250" as="geometry"/>
                </mxCell>
                <mxCell id="45" style="edgeStyle=none;html=1;entryX=0.5;entryY=1;entryDx=0;entryDy=0;fontSize=15;exitX=0.75;exitY=0;exitDx=0;exitDy=0;" edge="1" parent="1" source="41" target="44">
                    <mxGeometry relative="1" as="geometry"/>
                </mxCell>
                <mxCell id="52" value="a set of &lt;code class=&quot;hljs&quot;&gt;Parser&lt;/code&gt; utility methods &lt;br&gt;including &lt;code class=&quot;hljs&quot;&gt;bump&lt;/code&gt;,&lt;br/&gt;&lt;code class=&quot;hljs&quot;&gt;check&lt;/code&gt;, &lt;code class=&quot;hljs&quot;&gt;eat&lt;/code&gt;, &lt;code class=&quot;hljs&quot;&gt;expect&lt;/code&gt;, &lt;code class=&quot;hljs&quot;&gt;look_ahead&lt;/code&gt;" style="edgeLabel;html=1;align=center;verticalAlign=middle;resizable=0;points=[];fontSize=15;" vertex="1" connectable="0" parent="45">
                    <mxGeometry x="-0.345" y="3" relative="1" as="geometry">
                        <mxPoint x="13" y="-24" as="offset"/>
                    </mxGeometry>
                </mxCell>
                <mxCell id="41" value="&lt;a href=&quot;https://doc.rust-lang.org/nightly/nightly-rustc/rustc_parse/parser/struct.Parser.html&quot;&gt;&lt;code style=&quot;font-size: 15px;&quot; class=&quot;hljs&quot;&gt;rustc_parse::parser::Parser&lt;/code&gt;&lt;/a&gt;" style="whiteSpace=wrap;html=1;fontSize=29;align=center;" vertex="1" parent="1">
                    <mxGeometry x="620" y="1020" width="270" height="40" as="geometry"/>
                </mxCell>
                <mxCell id="47" style="edgeStyle=none;html=1;fontSize=15;entryX=0.5;entryY=1;entryDx=0;entryDy=0;" edge="1" parent="1" source="44" target="49">
                    <mxGeometry relative="1" as="geometry">
                        <mxPoint x="935" y="880" as="targetPoint"/>
                    </mxGeometry>
                </mxCell>
                <mxCell id="48" value="&lt;a href=&quot;https://doc.rust-lang.org/nightly/nightly-rustc/rustc_parse/index.html&quot;&gt;translates the token stream from the lexer into an Abstract Syntax&lt;br/&gt;Tree (AST)&lt;/a&gt;" style="edgeLabel;html=1;align=center;verticalAlign=middle;resizable=0;points=[];fontSize=15;" vertex="1" connectable="0" parent="47">
                    <mxGeometry x="-0.2937" y="3" relative="1" as="geometry">
                        <mxPoint x="18" y="-6" as="offset"/>
                    </mxGeometry>
                </mxCell>
                <mxCell id="51" value="" style="edgeStyle=none;html=1;fontSize=15;" edge="1" parent="1" source="44" target="50">
                    <mxGeometry relative="1" as="geometry"/>
                </mxCell>
                <mxCell id="44" value="&lt;a href=&quot;https://doc.rust-lang.org/nightly/nightly-rustc/rustc_parse/parser/struct.Parser.html#method.parse_crate_mod&quot;&gt;&lt;code class=&quot;hljs&quot;&gt;Parser::parse_crate_mod()&lt;/code&gt;&lt;/a&gt; &lt;br&gt;and&lt;br&gt;&amp;nbsp;&amp;nbsp;&lt;a href=&quot;https://doc.rust-lang.org/nightly/nightly-rustc/rustc_parse/parser/struct.Parser.html#method.parse_mod&quot;&gt;&lt;code class=&quot;hljs&quot;&gt;Parser::parse_mod()&lt;/code&gt;&lt;/a&gt;" style="whiteSpace=wrap;html=1;fontSize=15;" vertex="1" parent="1">
                    <mxGeometry x="780" y="740" width="250" height="80" as="geometry"/>
                </mxCell>
                <mxCell id="55" value="" style="edgeStyle=none;html=1;fontSize=15;" edge="1" parent="1" source="49" target="54">
                    <mxGeometry relative="1" as="geometry"/>
                </mxCell>
                <mxCell id="56" value="lowering" style="edgeLabel;html=1;align=center;verticalAlign=middle;resizable=0;points=[];fontSize=15;" vertex="1" connectable="0" parent="55">
                    <mxGeometry x="0.2313" y="-3" relative="1" as="geometry">
                        <mxPoint x="-12" y="11" as="offset"/>
                    </mxGeometry>
                </mxCell>
                <mxCell id="49" value="AST" style="whiteSpace=wrap;html=1;fontSize=15;" vertex="1" parent="1">
                    <mxGeometry x="845" y="585" width="120" height="60" as="geometry"/>
                </mxCell>
                <mxCell id="50" value="The external module parsing&lt;br/&gt;entry point is &lt;a href=&quot;https://doc.rust-lang.org/nightly/nightly-rustc/rustc_expand/module/fn.parse_external_mod.html&quot;&gt;&lt;code class=&quot;hljs&quot;&gt;rustc_expand::module::parse_external_mod&lt;/code&gt;&lt;/a&gt;.&lt;br/&gt;And the macro parser entry point is &lt;a href=&quot;https://doc.rust-lang.org/nightly/nightly-rustc/rustc_parse/parser/struct.Parser.html#method.parse_nonterminal&quot;&gt;&lt;code class=&quot;hljs&quot;&gt;Parser::parse_nonterminal()&lt;/code&gt;&lt;/a&gt;" style="whiteSpace=wrap;html=1;fontSize=15;" vertex="1" parent="1">
                    <mxGeometry x="1100" y="725" width="380" height="110" as="geometry"/>
                </mxCell>
                <mxCell id="64" value="" style="edgeStyle=none;html=1;fontSize=15;" edge="1" parent="1" source="54" target="63">
                    <mxGeometry relative="1" as="geometry"/>
                </mxCell>
                <mxCell id="65" value="lowering" style="edgeLabel;html=1;align=center;verticalAlign=middle;resizable=0;points=[];fontSize=15;" vertex="1" connectable="0" parent="64">
                    <mxGeometry x="-0.43" y="1" relative="1" as="geometry">
                        <mxPoint x="32" y="1" as="offset"/>
                    </mxGeometry>
                </mxCell>
                <mxCell id="54" value="&lt;a href=&quot;https://doc.rust-lang.org/nightly/nightly-rustc/rustc_hir/index.html&quot;&gt;High-Level Intermediate&lt;br/&gt;Representation (HIR)&lt;/a&gt;" style="whiteSpace=wrap;html=1;fontSize=15;" vertex="1" parent="1">
                    <mxGeometry x="1021" y="420" width="220" height="80" as="geometry"/>
                </mxCell>
                <mxCell id="59" style="edgeStyle=none;html=1;fontSize=15;exitX=0.75;exitY=1;exitDx=0;exitDy=0;" edge="1" parent="1" source="57" target="54">
                    <mxGeometry relative="1" as="geometry"/>
                </mxCell>
                <mxCell id="57" value="a more compiler-friendly representation of the AST,&lt;br&gt;It involves a lot of desugaring of things&lt;br/&gt;like loops and &lt;code class=&quot;hljs&quot;&gt;async fn&lt;/code&gt;" style="whiteSpace=wrap;html=1;fontSize=15;" vertex="1" parent="1">
                    <mxGeometry x="760" y="270" width="260" height="90" as="geometry"/>
                </mxCell>
                <mxCell id="61" style="edgeStyle=none;html=1;fontSize=15;" edge="1" parent="1" source="60" target="54">
                    <mxGeometry relative="1" as="geometry"/>
                </mxCell>
                <mxCell id="60" value="&lt;a href=&quot;https://rustc-dev-guide.rust-lang.org/type-inference.html&quot;&gt;&lt;em&gt;type inference&lt;/em&gt;&lt;/a&gt;,&amp;nbsp;&lt;br&gt;&lt;a href=&quot;https://rustc-dev-guide.rust-lang.org/traits/resolution.html&quot;&gt;&lt;em&gt;trait solving&lt;/em&gt;&lt;/a&gt;,&amp;nbsp;&lt;br&gt;&lt;a href=&quot;https://rustc-dev-guide.rust-lang.org/type-checking.html&quot;&gt;&lt;em&gt;type checking&lt;/em&gt;&lt;/a&gt;&lt;br&gt;are happened here" style="text;html=1;strokeColor=none;fillColor=none;align=center;verticalAlign=middle;whiteSpace=wrap;rounded=0;fontSize=15;" vertex="1" parent="1">
                    <mxGeometry x="1100" y="280" width="200" height="90" as="geometry"/>
                </mxCell>
                <mxCell id="62" value="Type checking is the process of converting the types found in the HIR&lt;br/&gt;(&lt;a href=&quot;https://doc.rust-lang.org/nightly/nightly-rustc/rustc_hir/hir/struct.Ty.html&quot;&gt;&lt;code class=&quot;hljs&quot;&gt;hir::Ty&lt;/code&gt;&lt;/a&gt;), which represent what the user wrote,&lt;br/&gt;into the internal representation used by the compiler (&lt;a href=&quot;https://doc.rust-lang.org/nightly/nightly-rustc/rustc_middle/ty/struct.Ty.html&quot;&gt;&lt;code class=&quot;hljs&quot;&gt;Ty&amp;lt;'tcx&amp;gt;&lt;/code&gt;&lt;/a&gt;).&lt;br/&gt;That information is used to verify the type safety, correctness and&lt;br/&gt;coherence of the types used in the program." style="whiteSpace=wrap;html=1;fontSize=15;" vertex="1" parent="1">
                    <mxGeometry x="1290" y="145" width="480" height="120" as="geometry"/>
                </mxCell>
                <mxCell id="79" value="" style="edgeStyle=none;html=1;fontSize=20;" edge="1" parent="1" source="63" target="78">
                    <mxGeometry relative="1" as="geometry"/>
                </mxCell>
                <mxCell id="63" value="&lt;a href=&quot;https://rustc-dev-guide.rust-lang.org/mir/index.html&quot;&gt;Mid-level Intermediate Representation (MIR)&lt;/a&gt;" style="whiteSpace=wrap;html=1;fontSize=15;" vertex="1" parent="1">
                    <mxGeometry x="1390" y="425" width="180" height="70" as="geometry"/>
                </mxCell>
                <mxCell id="67" style="edgeStyle=none;html=1;entryX=0.5;entryY=0;entryDx=0;entryDy=0;fontSize=15;" edge="1" parent="1" source="66" target="63">
                    <mxGeometry relative="1" as="geometry"/>
                </mxCell>
                <mxCell id="66" value="&lt;i&gt;used for&amp;nbsp;&lt;/i&gt;&lt;a href=&quot;https://rustc-dev-guide.rust-lang.org/borrow_check.html&quot;&gt;borrow checking&lt;/a&gt;&lt;br&gt;and still generic&lt;br&gt;(like Vec&amp;lt;T&amp;gt; still exists, not really but a according representation)" style="text;html=1;strokeColor=none;fillColor=none;align=center;verticalAlign=middle;whiteSpace=wrap;rounded=0;fontSize=15;" vertex="1" parent="1">
                    <mxGeometry x="1367.5" y="310" width="225" height="80" as="geometry"/>
                </mxCell>
                <mxCell id="69" style="edgeStyle=none;html=1;entryX=0.25;entryY=1;entryDx=0;entryDy=0;fontSize=15;" edge="1" parent="1" source="68" target="63">
                    <mxGeometry relative="1" as="geometry"/>
                </mxCell>
                <mxCell id="68" value="&lt;a href=&quot;https://rustc-dev-guide.rust-lang.org/mir/optimizations.html&quot;&gt;many optimizations&lt;/a&gt;" style="text;html=1;align=center;verticalAlign=middle;resizable=0;points=[];autosize=1;strokeColor=none;fillColor=none;fontSize=15;" vertex="1" parent="1">
                    <mxGeometry x="1330" y="535" width="150" height="30" as="geometry"/>
                </mxCell>
                <mxCell id="71" style="edgeStyle=none;html=1;fontSize=15;" edge="1" parent="1" source="70" target="63">
                    <mxGeometry relative="1" as="geometry"/>
                </mxCell>
                <mxCell id="70" value="&lt;em&gt;collect a monomorphization&lt;br&gt;collection for later usage&lt;/em&gt;" style="text;html=1;align=center;verticalAlign=middle;resizable=0;points=[];autosize=1;strokeColor=none;fillColor=none;fontSize=15;" vertex="1" parent="1">
                    <mxGeometry x="1420" y="585" width="210" height="50" as="geometry"/>
                </mxCell>
                <mxCell id="74" value="" style="edgeStyle=none;html=1;fontSize=15;" edge="1" parent="1" source="72" target="73">
                    <mxGeometry relative="1" as="geometry"/>
                </mxCell>
                <mxCell id="72" value="rustc" style="whiteSpace=wrap;html=1;fontSize=15;" vertex="1" parent="1">
                    <mxGeometry x="1910" y="310" width="80" height="30" as="geometry"/>
                </mxCell>
                <mxCell id="76" value="" style="edgeStyle=none;html=1;fontSize=15;" edge="1" parent="1" source="73" target="75">
                    <mxGeometry relative="1" as="geometry"/>
                </mxCell>
                <mxCell id="73" value="LLVM" style="whiteSpace=wrap;html=1;fontSize=15;" vertex="1" parent="1">
                    <mxGeometry x="2050" y="302.5" width="100" height="45" as="geometry"/>
                </mxCell>
                <mxCell id="75" value="executable&lt;br&gt;binary" style="whiteSpace=wrap;html=1;fontSize=15;" vertex="1" parent="1">
                    <mxGeometry x="2220" y="295" width="120" height="60" as="geometry"/>
                </mxCell>
                <mxCell id="77" value="&lt;font style=&quot;font-size: 20px;&quot;&gt;Code Generation&lt;/font&gt;" style="text;html=1;strokeColor=none;fillColor=none;align=center;verticalAlign=middle;whiteSpace=wrap;rounded=0;fontSize=15;" vertex="1" parent="1">
                    <mxGeometry x="1910" y="215" width="180" height="60" as="geometry"/>
                </mxCell>
                <mxCell id="86" value="" style="edgeStyle=none;html=1;fontSize=15;startArrow=none;" edge="1" parent="1" source="87" target="85">
                    <mxGeometry relative="1" as="geometry"/>
                </mxCell>
                <mxCell id="78" value="LLVM IR" style="whiteSpace=wrap;html=1;fontSize=15;" vertex="1" parent="1">
                    <mxGeometry x="1948" y="430" width="120" height="60" as="geometry"/>
                </mxCell>
                <mxCell id="80" value="" style="shape=curlyBracket;whiteSpace=wrap;html=1;rounded=1;labelPosition=left;verticalLabelPosition=middle;align=right;verticalAlign=middle;fontSize=20;rotation=90;" vertex="1" parent="1">
                    <mxGeometry x="1762.47" y="170" width="20" height="485" as="geometry"/>
                </mxCell>
                <mxCell id="82" style="edgeStyle=none;html=1;entryX=0;entryY=0.75;entryDx=0;entryDy=0;fontSize=15;" edge="1" parent="1" source="81" target="77">
                    <mxGeometry relative="1" as="geometry"/>
                </mxCell>
                <mxCell id="81" value="&lt;font style=&quot;font-size: 15px;&quot;&gt;The first step of Code Generation&lt;/font&gt;" style="text;html=1;align=center;verticalAlign=middle;resizable=0;points=[];autosize=1;strokeColor=none;fillColor=none;fontSize=20;" vertex="1" parent="1">
                    <mxGeometry x="1647.47" y="355" width="250" height="40" as="geometry"/>
                </mxCell>
                <mxCell id="83" value="From MIR to LLVM-IR&lt;br&gt;This is where the MIR&lt;br&gt;is actually monomorphized,&lt;br&gt;&amp;nbsp;according to the list we created in the&lt;br&gt;previous step." style="text;html=1;align=center;verticalAlign=middle;resizable=0;points=[];autosize=1;strokeColor=none;fillColor=none;fontSize=15;" vertex="1" parent="1">
                    <mxGeometry x="1630" y="485" width="280" height="100" as="geometry"/>
                </mxCell>
                <mxCell id="91" value="" style="edgeStyle=none;html=1;fontSize=15;" edge="1" parent="1" source="85" target="90">
                    <mxGeometry relative="1" as="geometry"/>
                </mxCell>
                <mxCell id="85" value="LLVM&lt;br&gt;(does a lot more optimizations)" style="whiteSpace=wrap;html=1;fontSize=15;" vertex="1" parent="1">
                    <mxGeometry x="2060" y="530" width="150" height="80" as="geometry"/>
                </mxCell>
                <mxCell id="88" value="" style="edgeStyle=none;html=1;fontSize=15;endArrow=none;" edge="1" parent="1" source="78" target="87">
                    <mxGeometry relative="1" as="geometry">
                        <mxPoint x="2067.9999999999995" y="460" as="sourcePoint"/>
                        <mxPoint x="2190" y="460" as="targetPoint"/>
                    </mxGeometry>
                </mxCell>
                <mxCell id="87" value="passed to" style="text;html=1;align=center;verticalAlign=middle;resizable=0;points=[];autosize=1;strokeColor=none;fillColor=none;fontSize=15;" vertex="1" parent="1">
                    <mxGeometry x="2090" y="465" width="90" height="30" as="geometry"/>
                </mxCell>
                <mxCell id="95" style="edgeStyle=none;html=1;fontSize=15;" edge="1" parent="1" source="90" target="94">
                    <mxGeometry relative="1" as="geometry"/>
                </mxCell>
                <mxCell id="90" value="emits machine code" style="whiteSpace=wrap;html=1;fontSize=15;" vertex="1" parent="1">
                    <mxGeometry x="2052.5" y="660" width="165" height="60" as="geometry"/>
                </mxCell>
                <mxCell id="96" style="edgeStyle=none;html=1;entryX=-0.003;entryY=0.476;entryDx=0;entryDy=0;entryPerimeter=0;fontSize=15;" edge="1" parent="1" source="92" target="94">
                    <mxGeometry relative="1" as="geometry"/>
                </mxCell>
                <mxCell id="92" value="libraries" style="whiteSpace=wrap;html=1;fontSize=15;" vertex="1" parent="1">
                    <mxGeometry x="1838" y="713.75" width="110" height="50" as="geometry"/>
                </mxCell>
                <mxCell id="97" style="edgeStyle=none;html=1;entryX=1;entryY=0.589;entryDx=0;entryDy=0;entryPerimeter=0;fontSize=15;" edge="1" parent="1" source="93" target="94">
                    <mxGeometry relative="1" as="geometry"/>
                </mxCell>
                <mxCell id="93" value="binaries" style="whiteSpace=wrap;html=1;fontSize=15;" vertex="1" parent="1">
                    <mxGeometry x="2320" y="708.75" width="120" height="60" as="geometry"/>
                </mxCell>
                <mxCell id="99" value="" style="edgeStyle=none;html=1;fontSize=15;" edge="1" parent="1" source="94" target="98">
                    <mxGeometry relative="1" as="geometry"/>
                </mxCell>
                <mxCell id="94" value="&lt;i&gt;The different libraries/binaries are then linked &lt;br&gt;together to produce the final binary.&lt;/i&gt;" style="text;html=1;align=center;verticalAlign=middle;resizable=0;points=[];autosize=1;strokeColor=none;fillColor=none;fontSize=15;" vertex="1" parent="1">
                    <mxGeometry x="1975" y="770" width="320" height="50" as="geometry"/>
                </mxCell>
                <mxCell id="98" value="*.exe" style="whiteSpace=wrap;html=1;fontSize=15;" vertex="1" parent="1">
                    <mxGeometry x="2072.5" y="860" width="125" height="65" as="geometry"/>
                </mxCell>
                <mxCell id="100" value="&lt;h1 id=&quot;high-level-overview-of-the-compiler-source&quot;&gt;&lt;a href=&quot;https://rustc-dev-guide.rust-lang.org/compiler-src.html#high-level-overview-of-the-compiler-source&quot; class=&quot;header&quot;&gt;High-level overview of the compiler source&lt;/a&gt;&lt;/h1&gt;" style="text;whiteSpace=wrap;html=1;fontSize=15;" vertex="1" parent="1">
                    <mxGeometry x="50" y="1230" width="760" height="150" as="geometry"/>
                </mxCell>
                <mxCell id="101" value="&lt;h1&gt;&lt;font style=&quot;font-size: 20px;&quot;&gt;Official repository stucture&lt;/font&gt;&lt;/h1&gt;&lt;div&gt;&lt;ul&gt;&lt;li&gt;&lt;p&gt;&lt;code class=&quot;hljs&quot;&gt;compiler/&lt;/code&gt; contains the source code for &lt;code class=&quot;hljs&quot;&gt;rustc&lt;/code&gt;. It consists of many crates&lt;br&gt;that together make up the compiler.&lt;/p&gt;&lt;/li&gt;&lt;li&gt;&lt;p&gt;&lt;code class=&quot;hljs&quot;&gt;library/&lt;/code&gt; contains the standard libraries (&lt;code class=&quot;hljs&quot;&gt;core&lt;/code&gt;, &lt;code class=&quot;hljs&quot;&gt;alloc&lt;/code&gt;, &lt;code class=&quot;hljs&quot;&gt;std&lt;/code&gt;,&lt;br&gt;&lt;code class=&quot;hljs&quot;&gt;proc_macro&lt;/code&gt;, &lt;code class=&quot;hljs&quot;&gt;test&lt;/code&gt;), as well as the Rust runtime (&lt;code class=&quot;hljs&quot;&gt;backtrace&lt;/code&gt;, &lt;code class=&quot;hljs&quot;&gt;rtstartup&lt;/code&gt;,&lt;br&gt;&lt;code class=&quot;hljs&quot;&gt;lang_start&lt;/code&gt;).&lt;/p&gt;&lt;/li&gt;&lt;li&gt;&lt;p&gt;&lt;code class=&quot;hljs&quot;&gt;tests/&lt;/code&gt; contains the compiler tests.&lt;/p&gt;&lt;/li&gt;&lt;li&gt;&lt;p&gt;&lt;code class=&quot;hljs&quot;&gt;src/&lt;/code&gt; contains the source code for rustdoc, clippy, cargo, the build system,&lt;br&gt;language docs, etc.&lt;/p&gt;&lt;br&gt;&lt;/li&gt;&lt;/ul&gt;&lt;/div&gt;" style="text;html=1;strokeColor=none;fillColor=none;spacing=5;spacingTop=-20;whiteSpace=wrap;overflow=hidden;rounded=0;fontSize=15;" vertex="1" parent="1">
                    <mxGeometry x="50" y="1340" width="580" height="380" as="geometry"/>
                </mxCell>
                <mxCell id="102" value="In code&amp;nbsp;process when compiling source code using `rustc`" style="text;html=1;strokeColor=none;fillColor=none;align=center;verticalAlign=middle;whiteSpace=wrap;rounded=0;fontSize=20;" vertex="1" parent="1">
                    <mxGeometry x="845" y="1190" width="320" height="60" as="geometry"/>
                </mxCell>
                <mxCell id="105" value="" style="edgeStyle=none;html=1;fontSize=15;" edge="1" parent="1" source="103" target="104">
                    <mxGeometry relative="1" as="geometry"/>
                </mxCell>
                <mxCell id="106" value="called rustc_driver" style="edgeLabel;html=1;align=center;verticalAlign=middle;resizable=0;points=[];fontSize=15;" vertex="1" connectable="0" parent="105">
                    <mxGeometry x="-0.2362" y="-1" relative="1" as="geometry">
                        <mxPoint x="18" y="-4" as="offset"/>
                    </mxGeometry>
                </mxCell>
                <mxCell id="103" value="&lt;font style=&quot;font-size: 15px;&quot;&gt;In compiler/rustc&lt;/font&gt;" style="whiteSpace=wrap;html=1;fontSize=20;" vertex="1" parent="1">
                    <mxGeometry x="900" y="1280" width="140" height="50" as="geometry"/>
                </mxCell>
                <mxCell id="114" value="" style="edgeStyle=none;html=1;fontSize=15;" edge="1" parent="1" source="104" target="113">
                    <mxGeometry relative="1" as="geometry"/>
                </mxCell>
                <mxCell id="104" value="&lt;font style=&quot;font-size: 15px;&quot;&gt;&lt;a href=&quot;https://github.com/rust-lang/rust/blob/0d50ab77397d7278500abd22d34de0e10940b2ee/compiler/rustc_driver_impl/src/lib.rs#L1479&quot;&gt;rustc_driver::main()&lt;/a&gt;&lt;/font&gt;" style="whiteSpace=wrap;html=1;fontSize=20;" vertex="1" parent="1">
                    <mxGeometry x="1230" y="1270" width="160" height="60" as="geometry"/>
                </mxCell>
                <mxCell id="109" value="rustc_driver is an empty wrapper which actually called `rustc_driver_impl`" style="rounded=0;whiteSpace=wrap;html=1;fontSize=15;" vertex="1" parent="1">
                    <mxGeometry x="1035" y="1360" width="195" height="90" as="geometry"/>
                </mxCell>
                <mxCell id="112" style="edgeStyle=none;html=1;entryX=0.5;entryY=0;entryDx=0;entryDy=0;fontSize=15;" edge="1" parent="1" source="111" target="104">
                    <mxGeometry relative="1" as="geometry"/>
                </mxCell>
                <mxCell id="111" value="rustc_driver_impl" style="text;html=1;align=center;verticalAlign=middle;resizable=0;points=[];autosize=1;strokeColor=none;fillColor=none;fontSize=15;" vertex="1" parent="1">
                    <mxGeometry x="1240" y="1220" width="140" height="30" as="geometry"/>
                </mxCell>
                <mxCell id="116" value="" style="edgeStyle=none;html=1;fontSize=15;" edge="1" parent="1" source="113" target="115">
                    <mxGeometry relative="1" as="geometry"/>
                </mxCell>
                <mxCell id="113" value="&lt;font style=&quot;font-size: 15px;&quot;&gt;RunCompiler::new(&amp;amp;args, &amp;amp;mut callbacks).run()&lt;/font&gt;" style="whiteSpace=wrap;html=1;fontSize=20;" vertex="1" parent="1">
                    <mxGeometry x="1470" y="1275" width="340" height="50" as="geometry"/>
                </mxCell>
                <mxCell id="115" value="&lt;font style=&quot;font-size: 15px;&quot;&gt;&lt;a href=&quot;https://github.com/rust-lang/rust/blob/b112bc5529cfa8d8a9000f7a85278ece3232e579/compiler/rustc_driver_impl/src/lib.rs#L256C7-L256C7&quot;&gt;run_compiler(self.at_args, self.callbacks, self.file_loader, self.make_codegen_backend)&lt;/a&gt;&lt;/font&gt;" style="whiteSpace=wrap;html=1;fontSize=20;" vertex="1" parent="1">
                    <mxGeometry x="1465" y="1410" width="350" height="60" as="geometry"/>
                </mxCell>
            </root>
        </mxGraphModel>
    </diagram>
</mxfile>